# xmcd CD database file
#
# Track frame offsets:
#	150
#	23381
#	47847
#	65563
#	83470
#	104611
#	123254
#	146373
#	167112
#	187421
#	202941
#	220307
#	243214
#	264711
#
# Disc length: 3816 seconds
#
# Revision: 0
# Processed by: cddbd v1.4PL0 Copyright (c) Steve Scherf et al.
# Submitted via: CDex 1.50beta10
#
DISCID=c40ee60e
DTITLE=Cali - Pachanguero
DYEAR=2001
DGENRE=Salsa
TTITLE0=grupo niche-cali pachanguero
TTITLE1=la misma gente-caliche
TTITLE2=los soneros del pueblo-tributo a cali
TTITLE3=octava dimension-es mi cali
TTITLE4=orquesta canela-juanchito
TTITLE5=alvaro del castillo-rumba en cali
TTITLE6=grupo niche-mi valle del cauca
TTITLE7=la identidad-senora cali
TTITLE8=la misma gente-un verano en cali
TTITLE9=carlos guerrero-la feria
TTITLE10=grupo niche-cali aji
TTITLE11=grupo gale-cali ae
TTITLE12=la misma gente-caliboogie
TTITLE13=los generales-cali pachanguero
EXTD=YEAR: 2001
EXTT0=
EXTT1=
EXTT2=
EXTT3=
EXTT4=
EXTT5=
EXTT6=
EXTT7=
EXTT8=
EXTT9=
EXTT10=
EXTT11=
EXTT12=
EXTT13=
PLAYORDER=
